# xmcd
#
# Track frame offsets:
#	150
#	18037
#	34237
#	49390
#	70804
#	97983
#	120246
#	141685
#	164424
#	190628
#	213447
#	234959
#	257693
#	282584
#
# Disc length: 3960 seconds
#
# Revision: 0
# Processed by: cddbd v1.5.1PL2 Copyright (c) Steve Scherf et al.
# Submitted via: dBpowerAMP V4.0
#
DISCID=c50f760e
DTITLE=OÐUZ YILMAZ - Uður Böceðim
DYEAR=2006
DGENRE=Country
TTITLE0=Küme Düþersin
TTITLE1=Hay'dan Olur
TTITLE2=Kýskananlar Çatlasýn
TTITLE3=Uður Böceðim
TTITLE4=Yasak Aþk
TTITLE5=Naçar
TTITLE6=Sarý Civcivim
TTITLE7=Ayrýlamadým Senden
TTITLE8=Oy Can
TTITLE9=Ararsýn Birgün Gelir
TTITLE10=Ey Zalim Dünya
TTITLE11=Sýkýþmayalým
TTITLE12=Dört Kollu
TTITLE13=Develi,Abdalsýn Çingenesin,Bidenem
EXTD=
EXTT0=
EXTT1=
EXTT2=
EXTT3=
EXTT4=
EXTT5=
EXTT6=
EXTT7=
EXTT8=
EXTT9=
EXTT10=
EXTT11=
EXTT12=
EXTT13=
PLAYORDER=
